<svg width="1442" height="297" viewBox="0 0 1442 297" fill="none" xmlns="http://www.w3.org/2000/svg">
<path fill-rule="evenodd" clip-rule="evenodd" d="M1 295.607V1C104 0.999975 302.5 7.1067 461 59.1067C619.5 111.107 796 183.607 961 199.607C1126 215.607 1281 139.013 1361 113.718L1441 87.2171V295.607H1361C1281 295.607 1121 295.607 961 295.607C801 295.607 641 295.607 481 295.607C321 295.607 161 295.607 81 295.607H1Z" fill="#336990" fill-opacity="0.03" stroke="#D8DAE0" stroke-opacity="0.3"/>
<path fill-rule="evenodd" clip-rule="evenodd" d="M1 295.607L81 251.805C161 208.759 321 121.91 481 115.869C641 110.582 801 186.858 961 208.759C1121 230.66 1281 197.431 1361 181.571L1441 164.957V295.607H1361C1281 295.607 1121 295.607 961 295.607C801 295.607 641 295.607 481 295.607C321 295.607 161 295.607 81 295.607H1Z" fill="#FAFAFB" stroke="#D8DAE0" stroke-opacity="0.3"/>
<path fill-rule="evenodd" clip-rule="evenodd" d="M1 295.607L81 269.083C161 243.015 321 190.424 481 186.765C641 183.564 801 229.753 961 243.015C1121 256.278 1281 236.156 1361 226.552L1441 216.491V295.607H1361C1281 295.607 1121 295.607 961 295.607C801 295.607 641 295.607 481 295.607C321 295.607 161 295.607 81 295.607H1Z" fill="#F6F6F7" stroke="#A0AEC3" stroke-opacity="0.1"/>
</svg>
