<svg width="800" height="800" viewBox="0 0 800 800" fill="none" xmlns="http://www.w3.org/2000/svg">
<path d="M368.775 543.636C363.855 543.649 358.98 542.687 354.433 540.807C349.886 538.927 345.756 536.165 342.281 532.681C327.667 518.08 327.68 494.294 342.294 479.68C342.873 479.099 343.562 478.639 344.319 478.325C345.077 478.011 345.889 477.849 346.709 477.849C347.53 477.849 348.342 478.011 349.1 478.325C349.857 478.639 350.545 479.099 351.125 479.68C351.705 480.259 352.166 480.947 352.48 481.705C352.794 482.463 352.956 483.275 352.956 484.095C352.956 484.915 352.794 485.727 352.48 486.484C352.166 487.242 351.705 487.93 351.125 488.509C341.378 498.256 341.378 514.102 351.113 523.849C360.834 533.572 376.692 533.583 386.464 523.849C391.088 519.213 393.699 513.077 393.783 506.575C393.831 503.124 396.478 500.195 400.114 500.416C400.934 500.426 401.745 500.599 402.498 500.923C403.252 501.247 403.934 501.717 404.506 502.305C405.078 502.893 405.529 503.588 405.832 504.35C406.135 505.112 406.285 505.927 406.274 506.747C406.139 516.519 402.236 525.716 395.295 532.669C387.988 539.988 378.375 543.636 368.775 543.636ZM331.327 383.216C310.663 383.216 293.853 366.413 293.853 345.753C293.853 325.083 310.663 308.269 331.327 308.269C340.495 308.256 349.349 311.606 356.211 317.686C357.449 318.786 358.2 320.333 358.299 321.987C358.397 323.64 357.835 325.265 356.736 326.505C355.634 327.741 354.087 328.49 352.434 328.588C350.781 328.686 349.157 328.126 347.916 327.03C343.341 322.977 337.438 320.746 331.327 320.759C317.555 320.759 306.344 331.97 306.344 345.753C306.344 359.52 317.553 370.724 331.327 370.724C332.147 370.723 332.959 370.884 333.717 371.198C334.475 371.511 335.164 371.971 335.744 372.551C336.324 373.131 336.784 373.82 337.098 374.578C337.411 375.336 337.573 376.149 337.572 376.969C337.573 377.789 337.411 378.602 337.098 379.36C336.784 380.118 336.324 380.807 335.744 381.387C335.164 381.967 334.475 382.427 333.717 382.741C332.959 383.055 332.147 383.216 331.327 383.216ZM292.584 454.649C291.729 454.646 290.882 454.472 290.095 454.136C285.641 452.191 281.852 448.989 279.191 444.922C276.53 440.856 275.114 436.101 275.116 431.241C275.116 417.458 286.327 406.247 300.099 406.247C303.55 406.247 306.344 409.041 306.344 412.492C306.344 415.944 303.55 418.738 300.099 418.738C293.206 418.738 287.606 424.348 287.606 431.241C287.602 433.666 288.307 436.04 289.633 438.07C290.959 440.101 292.85 441.699 295.072 442.67C295.824 442.998 296.505 443.47 297.074 444.061C297.644 444.651 298.091 445.348 298.392 446.112C298.692 446.875 298.838 447.69 298.823 448.511C298.808 449.331 298.631 450.14 298.303 450.892C297.821 452.009 297.023 452.959 296.006 453.627C294.99 454.294 293.8 454.65 292.584 454.649Z" fill="#FF6969"/>
<path d="M300.098 418.736C282.875 418.736 268.87 404.739 268.87 387.533C268.883 368.119 287.375 352.956 306.648 356.964C308.268 357.303 309.687 358.272 310.593 359.657C311.499 361.042 311.818 362.73 311.479 364.35C311.316 365.155 310.995 365.92 310.534 366.6C310.072 367.28 309.481 367.862 308.793 368.312C308.106 368.762 307.336 369.071 306.528 369.221C305.72 369.371 304.891 369.359 304.087 369.186C292.487 366.795 281.362 375.877 281.362 387.533C281.362 397.852 289.767 406.245 300.1 406.245C303.551 406.245 306.345 409.039 306.345 412.491C306.345 415.942 303.55 418.736 300.098 418.736ZM375.044 343.789C357.82 343.789 343.817 329.792 343.817 312.586C343.817 295.356 357.82 281.334 375.044 281.334C392.267 281.334 406.272 295.356 406.272 312.586C406.272 313.406 406.111 314.219 405.797 314.977C405.483 315.734 405.023 316.423 404.443 317.003C403.863 317.583 403.175 318.043 402.417 318.357C401.659 318.67 400.847 318.832 400.026 318.831C399.206 318.832 398.394 318.671 397.635 318.357C396.877 318.044 396.189 317.584 395.608 317.004C395.028 316.424 394.568 315.735 394.254 314.977C393.94 314.219 393.779 313.406 393.779 312.586C393.779 302.242 385.375 293.825 375.042 293.825C364.711 293.825 356.306 302.242 356.306 312.586C356.306 322.905 364.711 331.299 375.042 331.299C375.862 331.298 376.675 331.459 377.433 331.773C378.191 332.086 378.88 332.546 379.46 333.126C380.04 333.706 380.5 334.395 380.814 335.153C381.128 335.911 381.289 336.723 381.289 337.544C381.29 338.364 381.129 339.177 380.815 339.935C380.502 340.693 380.042 341.382 379.462 341.962C378.881 342.542 378.193 343.002 377.435 343.315C376.676 343.629 375.864 343.79 375.044 343.789ZM331.412 518.689C318.262 518.689 305.417 513.469 295.975 504.039C276.495 484.558 276.508 452.855 296 433.363C305.442 423.909 317.981 418.713 331.303 418.713H331.315C344.636 418.713 357.189 423.909 366.653 433.375C367.233 433.955 367.694 434.643 368.008 435.401C368.322 436.158 368.484 436.971 368.484 437.791C368.484 438.611 368.322 439.423 368.008 440.181C367.694 440.938 367.233 441.627 366.653 442.206C366.073 442.787 365.385 443.247 364.627 443.561C363.87 443.875 363.058 444.037 362.237 444.037C361.417 444.037 360.605 443.875 359.847 443.561C359.09 443.247 358.401 442.787 357.822 442.206C350.723 435.108 341.305 431.203 331.315 431.203H331.303C321.325 431.203 311.92 435.108 304.833 442.194C290.208 456.819 290.195 480.606 304.808 495.209C313.261 503.65 325.362 507.627 337.122 505.759C340.476 505.297 343.733 507.566 344.258 510.969C344.509 512.605 344.101 514.274 343.125 515.612C342.149 516.949 340.683 517.845 339.048 518.105C336.521 518.493 333.969 518.688 331.412 518.689ZM431.273 543.649C421.661 543.649 412.067 539.988 404.759 532.681C397.82 525.716 393.915 516.519 393.781 506.747C393.769 505.927 393.92 505.112 394.223 504.35C394.527 503.587 394.977 502.892 395.549 502.305C396.122 501.717 396.804 501.247 397.558 500.923C398.311 500.599 399.122 500.427 399.942 500.416C403.442 500.294 406.212 503.124 406.273 506.575C406.359 513.077 408.969 519.213 413.586 523.859C423.37 533.594 439.226 533.594 448.937 523.847C458.67 514.1 458.67 498.255 448.937 488.508C446.497 486.069 446.497 482.117 448.937 479.678C451.378 477.239 455.329 477.238 457.769 479.678C472.383 494.292 472.383 518.078 457.769 532.68C450.473 539.988 440.861 543.649 431.273 543.649ZM468.72 383.216C467.064 383.214 465.477 382.555 464.306 381.385C463.136 380.214 462.478 378.626 462.476 376.97C462.477 375.315 463.135 373.727 464.306 372.556C465.477 371.385 467.064 370.726 468.72 370.725C482.504 370.725 493.703 359.52 493.703 345.755C493.703 331.972 482.504 320.761 468.72 320.761C462.609 320.749 456.707 322.981 452.131 327.031C449.547 329.306 445.592 329.086 443.323 326.506C442.225 325.267 441.663 323.644 441.759 321.991C441.855 320.339 442.602 318.791 443.836 317.688C450.699 311.61 459.553 308.259 468.72 308.27C489.386 308.27 506.194 325.086 506.194 345.755C506.195 366.413 489.386 383.216 468.72 383.216ZM507.462 454.649C505.073 454.649 502.754 453.247 501.754 450.892C501.424 450.141 501.245 449.332 501.228 448.512C501.212 447.691 501.357 446.876 501.656 446.112C501.956 445.348 502.403 444.65 502.973 444.06C503.543 443.469 504.224 442.997 504.976 442.67C507.198 441.699 509.088 440.1 510.414 438.069C511.74 436.039 512.444 433.666 512.44 431.241C512.44 424.349 506.854 418.738 499.95 418.738C498.294 418.736 496.706 418.078 495.535 416.907C494.364 415.736 493.706 414.148 493.705 412.492C493.706 410.836 494.364 409.249 495.535 408.078C496.706 406.907 498.294 406.248 499.95 406.247C513.734 406.247 524.931 417.458 524.931 431.241C524.933 436.101 523.517 440.856 520.856 444.922C518.195 448.989 514.405 452.191 509.951 454.136C509.164 454.471 508.318 454.645 507.462 454.649Z" fill="#FF6969"/>
<path d="M499.95 418.736C498.294 418.735 496.706 418.076 495.535 416.905C494.365 415.734 493.706 414.147 493.705 412.491C493.706 410.835 494.365 409.247 495.535 408.076C496.706 406.905 498.294 406.247 499.95 406.245C510.294 406.245 518.686 397.853 518.686 387.533C518.686 375.87 507.586 366.759 495.974 369.186C495.17 369.36 494.341 369.372 493.532 369.223C492.724 369.073 491.954 368.764 491.266 368.314C490.578 367.864 489.987 367.282 489.526 366.602C489.065 365.921 488.744 365.156 488.581 364.35C488.243 362.73 488.563 361.042 489.468 359.657C490.374 358.272 491.793 357.304 493.413 356.964C512.735 352.958 531.178 368.12 531.178 387.533C531.177 404.739 517.174 418.736 499.95 418.736ZM425.003 343.789C423.347 343.788 421.76 343.13 420.589 341.959C419.418 340.788 418.759 339.2 418.758 337.544C418.759 335.888 419.418 334.3 420.589 333.129C421.76 331.958 423.347 331.3 425.003 331.299C435.347 331.299 443.739 322.906 443.739 312.586C443.739 302.242 435.347 293.825 425.003 293.825C414.685 293.825 406.274 302.242 406.274 312.586C406.274 313.406 406.113 314.219 405.799 314.977C405.485 315.734 405.025 316.423 404.445 317.003C403.865 317.583 403.177 318.043 402.419 318.357C401.661 318.67 400.849 318.832 400.028 318.831C399.208 318.832 398.395 318.671 397.637 318.357C396.879 318.044 396.19 317.584 395.61 317.004C395.03 316.424 394.57 315.735 394.256 314.977C393.942 314.219 393.781 313.406 393.781 312.586C393.781 295.356 407.785 281.334 425.003 281.334C442.227 281.334 456.23 295.356 456.23 312.586C456.23 329.792 442.227 343.789 425.003 343.789ZM468.624 518.689C466.076 518.688 463.531 518.493 461.013 518.105C459.376 517.846 457.909 516.95 456.931 515.613C455.952 514.276 455.543 512.607 455.791 510.969C456.328 507.553 459.574 505.236 462.939 505.759C474.724 507.627 486.8 503.65 495.241 495.197C509.855 480.606 509.855 456.819 495.216 442.194C488.142 435.108 478.724 431.203 468.746 431.203C458.744 431.203 449.327 435.108 442.227 442.206C439.786 444.647 435.835 444.647 433.395 442.206C430.956 439.766 430.955 435.814 433.395 433.375C442.863 423.909 455.427 418.713 468.746 418.713C482.066 418.713 494.606 423.909 504.049 433.363C523.542 452.856 523.566 484.559 504.074 504.039C494.63 513.469 481.799 518.689 468.624 518.689ZM481.189 755.997H318.811C317.991 755.997 317.179 755.836 316.421 755.521C315.663 755.207 314.975 754.746 314.396 754.166L289.413 729.185C288.833 728.605 288.372 727.916 288.058 727.159C287.744 726.401 287.583 725.589 287.583 724.769V637.331C287.582 636.511 287.744 635.699 288.057 634.941C288.371 634.183 288.831 633.494 289.411 632.914C289.991 632.334 290.68 631.874 291.438 631.56C292.196 631.247 293.008 631.085 293.828 631.086H506.171C507.827 631.087 509.415 631.745 510.586 632.916C511.757 634.087 512.415 635.675 512.416 637.331V724.769C512.416 725.589 512.254 726.401 511.94 727.159C511.626 727.916 511.166 728.605 510.586 729.185L485.605 754.166C485.025 754.746 484.337 755.207 483.579 755.521C482.822 755.835 482.009 755.997 481.189 755.997ZM321.397 743.505H478.603L499.925 722.183V643.577H300.074V722.183L321.397 743.505Z" fill="#FF6969"/>
<path d="M281.338 681.048C279.738 681.049 278.2 680.436 277.04 679.335C275.88 678.234 275.188 676.73 275.105 675.133C275.018 673.479 275.59 671.858 276.697 670.625C277.804 669.392 279.354 668.649 281.008 668.558L518.32 656.067C521.834 655.994 524.712 658.544 524.883 661.984C525.078 665.436 522.42 668.363 518.98 668.558L281.667 681.048H281.338ZM281.338 718.522C279.739 718.522 278.201 717.908 277.041 716.808C275.881 715.707 275.188 714.203 275.105 712.606C275.018 710.952 275.59 709.331 276.697 708.098C277.804 706.866 279.354 706.122 281.008 706.031L518.32 693.541C519.141 693.493 519.962 693.609 520.738 693.882C521.513 694.154 522.227 694.578 522.837 695.128C523.447 695.678 523.942 696.344 524.294 697.087C524.645 697.83 524.845 698.635 524.883 699.456C525.078 702.908 522.42 705.836 518.98 706.031L281.667 718.522H281.338ZM506.17 643.577H293.828C293.008 643.577 292.196 643.416 291.438 643.102C290.68 642.788 289.991 642.328 289.411 641.748C288.831 641.168 288.371 640.48 288.057 639.722C287.744 638.964 287.582 638.152 287.583 637.331V598.614C224.945 559.469 187.655 492.489 187.655 418.738C187.655 301.647 282.911 206.389 400.003 206.389C517.077 206.389 612.344 301.645 612.344 418.738C612.344 492.502 575.042 559.481 512.416 598.614V637.331C512.414 638.987 511.756 640.575 510.585 641.746C509.414 642.917 507.826 643.575 506.17 643.577ZM300.073 631.086H499.925V595.125C499.924 594.049 500.202 592.99 500.732 592.054C501.262 591.117 502.026 590.334 502.95 589.781C563.625 553.198 599.855 489.267 599.855 418.736C599.855 308.538 510.197 218.88 400.005 218.88C289.805 218.88 200.147 308.538 200.147 418.736C200.147 489.242 236.377 553.186 297.052 589.781C297.975 590.334 298.739 591.117 299.27 592.054C299.8 592.99 300.078 594.049 300.077 595.125V631.086H300.073ZM400.003 780.978C352.966 780.978 338.791 753.702 338.206 752.544C337.466 751.062 337.344 749.347 337.868 747.775C338.392 746.204 339.518 744.905 341 744.164C344.088 742.652 347.806 743.859 349.356 746.909C349.844 747.848 361.189 768.489 400.005 768.489C438.861 768.489 450.181 747.788 450.645 746.898C452.231 743.872 455.987 742.653 459.037 744.214C462.087 745.775 463.331 749.483 461.795 752.545C461.208 753.702 447.034 780.978 400.003 780.978ZM131.444 424.981H6.53438C5.71406 424.982 4.90166 424.821 4.14367 424.507C3.38568 424.193 2.69695 423.733 2.1169 423.153C1.53685 422.573 1.07684 421.885 0.763205 421.127C0.449567 420.369 0.288448 419.556 0.289064 418.736C0.288448 417.916 0.449567 417.103 0.763205 416.345C1.07684 415.587 1.53685 414.899 2.1169 414.319C2.69695 413.738 3.38568 413.278 4.14367 412.965C4.90166 412.651 5.71406 412.49 6.53438 412.491H131.444C132.264 412.49 133.077 412.651 133.835 412.965C134.593 413.278 135.282 413.738 135.862 414.318C136.442 414.898 136.902 415.587 137.216 416.345C137.53 417.103 137.691 417.916 137.691 418.736C137.691 419.556 137.53 420.369 137.216 421.127C136.902 421.885 136.442 422.573 135.862 423.154C135.282 423.734 134.593 424.194 133.835 424.507C133.077 424.821 132.264 424.982 131.444 424.981ZM793.466 424.981H668.555C667.734 424.983 666.921 424.822 666.163 424.509C665.405 424.195 664.716 423.735 664.135 423.155C663.555 422.575 663.095 421.886 662.782 421.128C662.469 420.369 662.308 419.557 662.309 418.736C662.308 417.915 662.469 417.103 662.782 416.344C663.095 415.586 663.555 414.897 664.135 414.317C664.716 413.736 665.405 413.276 666.163 412.963C666.921 412.65 667.734 412.489 668.555 412.491H793.466C795.122 412.492 796.709 413.15 797.88 414.321C799.051 415.492 799.71 417.08 799.711 418.736C799.71 420.392 799.052 421.98 797.881 423.151C796.71 424.322 795.122 424.98 793.466 424.981ZM59.2422 621.716C58.1466 621.716 57.0703 621.428 56.1217 620.88C55.1731 620.332 54.3857 619.543 53.8391 618.594C53.4277 617.883 53.1604 617.099 53.0523 616.285C52.9443 615.472 52.9976 614.645 53.2094 613.852C53.4211 613.059 53.787 612.315 54.2862 611.664C54.7854 611.012 55.4081 610.465 56.1188 610.055L164.319 547.598C167.308 545.891 171.138 546.891 172.845 549.892C173.257 550.603 173.524 551.387 173.632 552.201C173.74 553.014 173.686 553.841 173.474 554.634C173.262 555.428 172.896 556.171 172.397 556.823C171.898 557.474 171.275 558.021 170.564 558.431L62.3656 620.886C61.4144 621.43 60.3378 621.716 59.2422 621.716ZM632.594 290.703C631.496 290.705 630.417 290.417 629.466 289.869C628.515 289.32 627.725 288.531 627.177 287.58C626.765 286.869 626.498 286.085 626.39 285.271C626.283 284.457 626.337 283.63 626.55 282.837C626.763 282.044 627.131 281.301 627.632 280.65C628.133 280 628.758 279.455 629.47 279.047L737.622 216.592C740.597 214.878 744.428 215.878 746.136 218.88C746.966 220.312 747.193 222.016 746.767 223.616C746.342 225.216 745.299 226.581 743.867 227.413L635.716 289.867C634.765 290.412 633.689 290.7 632.594 290.703ZM534.3 192.409C533.203 192.413 532.125 192.124 531.177 191.573C530.464 191.165 529.84 190.62 529.338 189.97C528.837 189.32 528.47 188.577 528.256 187.784C528.043 186.991 527.989 186.164 528.096 185.35C528.204 184.536 528.471 183.751 528.883 183.041L591.314 74.8657C593.022 71.8703 596.827 70.8407 599.853 72.5782C601.285 73.4089 602.329 74.7746 602.755 76.3747C603.18 77.9749 602.952 79.6786 602.122 81.111L539.691 189.286C539.147 190.235 538.362 191.024 537.415 191.572C536.469 192.121 535.394 192.41 534.3 192.409ZM400.028 156.4C399.208 156.401 398.395 156.24 397.637 155.926C396.879 155.612 396.19 155.152 395.61 154.572C395.03 153.992 394.57 153.304 394.256 152.546C393.942 151.788 393.781 150.975 393.781 150.155L393.769 25.2672C393.795 23.6278 394.464 22.0642 395.633 20.914C396.801 19.7638 398.375 19.1191 400.015 19.1191C401.654 19.1191 403.228 19.7638 404.397 20.914C405.566 22.0642 406.235 23.6278 406.261 25.2672L406.273 150.155C406.273 151.811 405.615 153.399 404.444 154.57C403.273 155.741 401.684 156.4 400.028 156.4ZM265.748 192.384C264.652 192.386 263.575 192.099 262.626 191.55C261.678 191.001 260.891 190.212 260.345 189.261L197.889 81.111C197.478 80.4012 197.21 79.6172 197.102 78.8038C196.994 77.9905 197.047 77.1639 197.259 76.3712C197.471 75.5786 197.837 74.8356 198.337 74.1847C198.836 73.5338 199.459 72.9879 200.17 72.5782C200.88 72.1674 201.664 71.9008 202.477 71.7935C203.29 71.6862 204.116 71.7403 204.908 71.9528C205.7 72.1653 206.443 72.5319 207.093 73.0318C207.743 73.5316 208.288 74.1548 208.697 74.8657L271.153 183.016C271.704 183.964 271.995 185.042 271.996 186.139C271.997 187.236 271.71 188.314 271.161 189.264C270.613 190.214 269.824 191.003 268.874 191.551C267.923 192.099 266.845 192.386 265.748 192.384ZM740.769 621.692C739.674 621.694 738.597 621.409 737.647 620.864L629.472 558.408C628.759 557.999 628.135 557.453 627.634 556.802C627.133 556.151 626.765 555.408 626.552 554.615C626.339 553.821 626.284 552.994 626.392 552.179C626.499 551.365 626.767 550.58 627.178 549.869C628.007 548.433 629.372 547.386 630.973 546.956C632.574 546.526 634.28 546.748 635.717 547.575L743.892 610.031C745.324 610.864 746.367 612.231 746.793 613.832C747.218 615.432 746.991 617.137 746.161 618.57C745.616 619.519 744.831 620.308 743.884 620.856C742.937 621.404 741.863 621.692 740.769 621.692ZM167.442 290.655C166.346 290.655 165.269 290.366 164.319 289.819L56.1563 227.388C55.4456 226.978 54.8227 226.432 54.3233 225.781C53.8239 225.13 53.4577 224.387 53.2458 223.594C53.0339 222.802 52.9804 221.975 53.0884 221.162C53.1964 220.349 53.4637 219.565 53.875 218.855C55.5953 215.866 59.425 214.859 62.4016 216.567L170.564 278.998C171.275 279.408 171.898 279.954 172.397 280.605C172.897 281.256 173.263 281.999 173.475 282.792C173.687 283.584 173.74 284.411 173.632 285.224C173.524 286.037 173.257 286.822 172.845 287.531C172.299 288.481 171.511 289.269 170.563 289.818C169.614 290.366 168.538 290.655 167.442 290.655Z" fill="#FF6969"/>
<path d="M400.028 512.908C399.208 512.908 398.395 512.747 397.637 512.434C396.879 512.12 396.19 511.66 395.61 511.08C395.03 510.5 394.57 509.811 394.256 509.053C393.942 508.295 393.781 507.483 393.781 506.663V312.588C393.781 311.767 393.942 310.955 394.256 310.197C394.57 309.439 395.03 308.75 395.61 308.17C396.19 307.59 396.879 307.13 397.637 306.816C398.395 306.503 399.208 306.342 400.028 306.342C400.848 306.342 401.661 306.503 402.419 306.817C403.176 307.131 403.865 307.591 404.445 308.171C405.025 308.751 405.485 309.439 405.799 310.197C406.113 310.955 406.274 311.767 406.273 312.588V506.663C406.274 507.483 406.113 508.295 405.799 509.053C405.485 509.811 405.025 510.5 404.445 511.08C403.865 511.66 403.176 512.12 402.419 512.433C401.661 512.747 400.848 512.908 400.028 512.908Z" fill="#FF6969"/>
<path d="M418.733 468.701C402.553 468.701 394.756 453.405 394.439 452.745C393.697 451.265 393.573 449.55 394.094 447.979C394.616 446.407 395.741 445.107 397.221 444.365C398.701 443.622 400.416 443.498 401.987 444.02C403.559 444.542 404.859 445.667 405.601 447.147C405.675 447.281 410.372 456.211 418.733 456.211C420.389 456.212 421.977 456.87 423.147 458.041C424.318 459.212 424.977 460.8 424.978 462.456C424.977 464.112 424.318 465.7 423.147 466.871C421.977 468.042 420.389 468.7 418.733 468.701Z" fill="#FF6969"/>
<path d="M381.253 468.701C380.433 468.702 379.621 468.541 378.863 468.227C378.105 467.913 377.416 467.453 376.836 466.873C376.256 466.293 375.796 465.604 375.482 464.847C375.169 464.089 375.007 463.276 375.008 462.456C375.007 461.636 375.168 460.823 375.482 460.065C375.796 459.307 376.256 458.619 376.836 458.039C377.416 457.459 378.104 456.999 378.862 456.685C379.62 456.371 380.433 456.21 381.253 456.211C389.62 456.211 394.33 447.233 394.378 447.147C395.952 444.109 399.709 442.865 402.759 444.401C405.82 445.962 407.078 449.672 405.539 452.745C405.223 453.405 397.428 468.701 381.253 468.701ZM431.223 393.755C401.6 393.755 393.781 373.328 393.781 362.526C393.799 360.886 394.461 359.319 395.625 358.163C396.788 357.006 398.36 356.354 400 356.347C401.641 356.34 403.218 356.978 404.392 358.124C405.565 359.27 406.241 360.832 406.273 362.472C406.309 364.398 407.309 381.264 431.225 381.264C432.881 381.265 434.469 381.924 435.64 383.095C436.811 384.265 437.469 385.853 437.47 387.509C437.469 389.165 436.81 390.753 435.639 391.924C434.468 393.095 432.88 393.753 431.223 393.755Z" fill="#FF6969"/>
<path d="M368.762 393.755C367.942 393.755 367.13 393.594 366.372 393.28C365.614 392.966 364.925 392.506 364.345 391.926C363.765 391.346 363.305 390.658 362.992 389.9C362.678 389.142 362.517 388.33 362.517 387.509C362.517 386.689 362.678 385.877 362.992 385.119C363.305 384.361 363.765 383.672 364.345 383.092C364.925 382.512 365.614 382.052 366.372 381.739C367.13 381.425 367.942 381.264 368.762 381.264C392.672 381.264 393.672 364.394 393.709 362.472C393.77 359.037 396.428 356.044 400.016 356.312C401.659 356.321 403.232 356.979 404.39 358.144C405.549 359.309 406.2 360.885 406.2 362.528C406.2 373.328 398.38 393.755 368.762 393.755Z" fill="#FF6969"/>
</svg>
