<svg width="167" height="167" viewBox="0 0 167 167" fill="none" xmlns="http://www.w3.org/2000/svg">
<path d="M167 83.5C167 129.616 129.616 167 83.5 167C37.3842 167 0 129.616 0 83.5C0 37.3842 37.3842 0 83.5 0C129.616 0 167 37.3842 167 83.5Z" fill="black" fill-opacity="0.3"/>
<path d="M109.044 55.6667C109.044 69.6411 97.7153 80.9697 83.7408 80.9697C69.7663 80.9697 58.4378 69.6411 58.4378 55.6667C58.4378 41.6922 69.7663 30.3636 83.7408 30.3636C97.7153 30.3636 109.044 41.6922 109.044 55.6667Z" fill="white"/>
<path d="M127.958 123.192C127.965 123.306 127.894 123.411 127.784 123.444C121.846 125.25 113.41 125.25 100.673 125.25H66.8093C54.0725 125.25 45.6373 125.25 39.6985 123.445C39.5889 123.411 39.518 123.307 39.5251 123.192C40.772 103.187 60.0915 87.2955 83.7415 87.2955C107.391 87.2955 126.711 103.187 127.958 123.192Z" fill="white"/>
</svg>
