<svg width="54" height="50" viewBox="0 0 54 50" fill="none" xmlns="http://www.w3.org/2000/svg">
<path d="M10.2647 31.4666C11.0647 32.3999 11.598 33.4666 11.598 34.7999C11.598 37.4666 9.33136 39.5999 6.6647 39.5999C6.13136 39.5999 5.59803 39.4666 5.0647 39.3332C5.99803 40.2666 7.19803 40.9332 8.53136 40.9332C11.198 40.9332 13.3314 38.7999 13.4647 36.1332C13.4647 33.9999 12.1314 32.1332 10.2647 31.4666Z" fill="#C2D1D3"/>
<path d="M7.99819 41.0666C6.39819 41.0666 5.06486 40.3999 3.99819 39.3333C2.93153 38.2666 2.39819 36.7999 2.39819 35.3333C2.39819 33.8666 3.06486 32.3999 4.13153 31.3333C5.19819 30.2666 6.53153 29.7333 8.13153 29.7333C11.1982 29.7333 13.7315 32.2666 13.7315 35.4666C13.5982 38.5333 11.0649 41.0666 7.99819 41.0666ZM7.99819 31.3333C6.93153 31.3333 5.99819 31.7333 5.19819 32.5333C4.39819 33.3333 3.99819 34.2666 3.99819 35.3333C3.99819 36.3999 4.39819 37.4666 5.19819 38.1333C5.99819 38.9333 6.93153 39.3333 7.99819 39.3333C10.2649 39.3333 11.9982 37.5999 11.9982 35.3333C11.9982 33.1999 10.2649 31.3333 7.99819 31.3333Z" fill="#336990"/>
<path d="M14.9316 50V48.4C14.9316 45.7333 13.3316 43.4667 11.0649 42.5333C12.2649 43.7333 12.9316 45.3333 12.9316 47.0667V49.8667" fill="#C2D1D3"/>
<path d="M15.0647 49.4666H13.4647V47.8666C13.4647 46.4 12.9314 45.0666 11.8647 44C10.7981 42.9333 9.46473 42.4 7.99806 42.4C5.06473 42.4 2.5314 44.8 2.5314 47.8666V49.4666H0.931396V47.7333C0.931396 43.8666 4.1314 40.6666 7.99806 40.6666C7.99806 40.6666 7.99806 40.6666 8.1314 40.6666C11.9981 40.6666 15.1981 43.8666 15.0647 47.8666V49.4666Z" fill="#336990"/>
<path d="M48.398 31.4666C49.198 32.3999 49.7313 33.4666 49.7313 34.7999C49.7313 37.4666 47.4647 39.5999 44.798 39.5999C44.2647 39.5999 43.7313 39.4666 43.198 39.3332C44.1313 40.2666 45.3313 40.9332 46.6647 40.9332C49.3313 40.9332 51.4647 38.7999 51.598 36.1332C51.598 33.9999 50.2647 32.1332 48.398 31.4666Z" fill="#C2D1D3"/>
<path d="M46.1315 41.0666C45.9982 41.0666 45.9982 41.0666 46.1315 41.0666C44.5315 41.0666 43.1982 40.3999 42.1315 39.3333C41.0648 38.2666 40.5315 36.7999 40.5315 35.3333C40.5315 33.8666 41.1982 32.3999 42.2648 31.3333C43.3315 30.2666 44.6648 29.7333 46.2648 29.7333C49.3315 29.7333 51.8648 32.2666 51.8648 35.4666C51.7315 38.5333 49.1982 41.0666 46.1315 41.0666ZM45.9982 31.3333C44.9315 31.3333 43.9982 31.7333 43.1982 32.5333C42.3982 33.3333 41.9982 34.2666 41.9982 35.3333C41.9982 36.3999 42.3982 37.4666 43.1982 38.1333C43.9982 38.9333 44.9315 39.3333 45.9982 39.3333C48.2648 39.3333 49.9982 37.5999 49.9982 35.3333C50.1315 33.1999 48.3982 31.3333 45.9982 31.3333C46.1315 31.3333 46.1315 31.3333 45.9982 31.3333Z" fill="#336990"/>
<path d="M52.9314 50V48.4C52.9314 45.7333 51.3314 43.4667 49.0647 42.5333C50.2647 43.7333 50.9314 45.3333 50.9314 47.0667V49.8667" fill="#C2D1D3"/>
<path d="M53.0647 49.4666H51.4647V47.8666C51.4647 46.4 50.9314 45.0666 49.8647 44C48.7981 42.9333 47.4647 42.4 45.9981 42.4C43.0647 42.4 40.5314 44.8 40.5314 47.8666V49.4666H38.9314V47.7333C38.9314 43.8666 42.1314 40.6666 45.9981 40.6666C45.9981 40.6666 45.9981 40.6666 46.1314 40.6666C49.9981 40.6666 53.1981 43.8666 53.0647 47.8666V49.4666Z" fill="#336990"/>
<path d="M28.9312 1.8667C29.7312 2.80003 30.2645 3.8667 30.2645 5.20003C30.2645 7.8667 27.9979 10 25.3312 10C24.7979 10 24.2645 9.8667 23.7312 9.73337C24.6645 10.6667 25.8645 11.3334 27.1979 11.3334C29.8645 11.3334 31.9979 9.20003 32.1312 6.53337C32.1312 4.2667 30.7979 2.53337 28.9312 1.8667Z" fill="#C2D1D3"/>
<path d="M26.6647 11.3333C25.0647 11.3333 23.7314 10.6667 22.6647 9.6C21.598 8.53333 21.0647 7.06667 21.0647 5.6C21.0647 4.13333 21.7314 2.66667 22.798 1.6C23.8647 0.533333 25.198 0 26.798 0C28.2647 0 29.7314 0.666666 30.798 1.73333C31.8647 2.8 32.398 4.26667 32.398 5.73333C32.398 7.2 31.7314 8.66667 30.6647 9.73333C29.598 10.8 28.1314 11.3333 26.6647 11.3333ZM26.6647 1.73333C25.598 1.73333 24.6647 2.13333 23.8647 2.93333C23.0647 3.73333 22.6647 4.66667 22.6647 5.73333C22.6647 8 24.398 9.73333 26.6647 9.86667C27.7314 9.86667 28.798 9.46667 29.4647 8.66667C30.2647 7.86667 30.6647 6.93333 30.6647 5.86667C30.6647 4.8 30.2647 3.73333 29.4647 3.06667C28.798 2.13333 27.8647 1.73333 26.6647 1.73333Z" fill="#336990"/>
<path d="M33.5979 20.4V18.8C33.5979 16.1333 31.9979 13.8667 29.7312 12.9333C30.9312 14.1333 31.5979 15.7333 31.5979 17.4667V20.2667" fill="#C2D1D3"/>
<path d="M32.1315 19.7333V18.1333C32.1315 16.6666 31.5981 15.3333 30.5315 14.2666C29.4648 13.2 28.1315 12.6666 26.6648 12.6666C25.1981 12.6666 23.8648 13.2 22.7981 14.2666C21.7315 15.3333 21.1981 16.6666 21.1981 18.1333V19.8666H19.5981V18.1333C19.5981 16.2666 20.3981 14.4 21.7315 13.2C23.0648 11.8666 24.7981 11.2 26.6648 11.2C26.6648 11.2 26.6648 11.2 26.7981 11.2C28.6648 11.2 30.3981 12 31.7315 13.3333C33.0648 14.6666 33.7315 16.5333 33.7315 18.4V20L32.1315 19.7333Z" fill="#336990"/>
<path d="M27.8646 22.6666H26.2646V32.8H27.8646V22.6666Z" fill="#336990"/>
<path d="M25.8541 36.1962L25.0544 34.8104L16.278 39.8751L17.0776 41.2608L25.8541 36.1962Z" fill="#336990"/>
<path d="M37.7313 39.8256L28.9558 34.7589L28.1558 36.1445L36.9313 41.2112L37.7313 39.8256Z" fill="#336990"/>
<path d="M27.0649 37.2C25.5982 37.2 24.3982 36 24.3982 34.5334C24.3982 33.0667 25.5982 31.8667 27.0649 31.8667C28.5315 31.8667 29.7315 33.0667 29.7315 34.5334C29.7315 36 28.3982 37.2 27.0649 37.2ZM27.0649 33.6C26.5315 33.6 25.9982 34 25.9982 34.6667C25.9982 35.3334 26.3982 35.7334 27.0649 35.7334C27.7315 35.7334 28.1315 35.3334 28.1315 34.6667C28.1315 34 27.5982 33.6 27.0649 33.6Z" fill="#336990"/>
</svg>
