<svg width="959" height="148" viewBox="0 0 959 148" fill="none" xmlns="http://www.w3.org/2000/svg">
<circle cx="51.5" cy="51.5" r="49.5" stroke="#E9E6E6" stroke-width="4"/>
<path d="M49.194 48.2906C49.0747 47.8758 48.9071 47.5093 48.6912 47.1912C48.4752 46.8673 48.211 46.5946 47.8985 46.373C47.5917 46.1457 47.2395 45.9724 46.8417 45.8531C46.4497 45.7338 46.015 45.6741 45.5377 45.6741C44.6457 45.6741 43.8616 45.8957 43.1855 46.3389C42.515 46.7821 41.9923 47.427 41.6173 48.2735C41.2423 49.1145 41.0548 50.1429 41.0548 51.3588C41.0548 52.5747 41.2395 53.6088 41.6088 54.461C41.9781 55.3133 42.5008 55.9639 43.177 56.4127C43.8531 56.8559 44.6514 57.0775 45.5718 57.0775C46.4071 57.0775 47.1201 56.9298 47.711 56.6343C48.3076 56.3332 48.7622 55.9099 49.0747 55.3645C49.3929 54.819 49.552 54.1741 49.552 53.4298L50.302 53.5406H45.802V50.7622H53.1059V52.961C53.1059 54.4951 52.7821 55.8133 52.1343 56.9156C51.4866 58.0122 50.5946 58.8588 49.4582 59.4554C48.3218 60.0463 47.0207 60.3417 45.5548 60.3417C43.9184 60.3417 42.4809 59.9809 41.2423 59.2593C40.0037 58.5321 39.0377 57.5008 38.3446 56.1656C37.6571 54.8247 37.3133 53.2338 37.3133 51.3929C37.3133 49.9781 37.5179 48.7167 37.927 47.6088C38.3417 46.4951 38.9213 45.552 39.6656 44.7792C40.4099 44.0065 41.2764 43.4184 42.265 43.015C43.2537 42.6116 44.3247 42.4099 45.4781 42.4099C46.4667 42.4099 47.3872 42.5548 48.2395 42.8446C49.0917 43.1287 49.8474 43.5321 50.5065 44.0548C51.1713 44.5775 51.7139 45.1997 52.1343 45.9213C52.5548 46.6372 52.8247 47.427 52.944 48.2906H49.194ZM63.3694 42.6485V60.1031H59.6791V46.1514H59.5768L55.5797 48.6571V45.3843L59.9007 42.6485H63.3694Z" fill="#2491FF"/>
<circle cx="191.5" cy="51.5" r="49.5" stroke="#E9E6E6" stroke-width="4"/>
<path d="M188.091 48.1875C187.972 47.7727 187.804 47.4062 187.588 47.0881C187.372 46.7642 187.108 46.4915 186.795 46.2699C186.489 46.0426 186.136 45.8693 185.739 45.75C185.347 45.6307 184.912 45.571 184.435 45.571C183.543 45.571 182.759 45.7926 182.082 46.2358C181.412 46.679 180.889 47.3239 180.514 48.1705C180.139 49.0114 179.952 50.0398 179.952 51.2557C179.952 52.4716 180.136 53.5057 180.506 54.358C180.875 55.2102 181.398 55.8608 182.074 56.3097C182.75 56.7528 183.548 56.9744 184.469 56.9744C185.304 56.9744 186.017 56.8267 186.608 56.5312C187.205 56.2301 187.659 55.8068 187.972 55.2614C188.29 54.7159 188.449 54.071 188.449 53.3267L189.199 53.4375H184.699V50.6591H192.003V52.858C192.003 54.392 191.679 55.7102 191.031 56.8125C190.384 57.9091 189.491 58.7557 188.355 59.3523C187.219 59.9432 185.918 60.2386 184.452 60.2386C182.815 60.2386 181.378 59.8778 180.139 59.1562C178.901 58.429 177.935 57.3977 177.241 56.0625C176.554 54.7216 176.21 53.1307 176.21 51.2898C176.21 49.875 176.415 48.6136 176.824 47.5057C177.239 46.392 177.818 45.4489 178.562 44.6761C179.307 43.9034 180.173 43.3153 181.162 42.9119C182.151 42.5085 183.222 42.3068 184.375 42.3068C185.364 42.3068 186.284 42.4517 187.136 42.7415C187.989 43.0256 188.744 43.429 189.403 43.9517C190.068 44.4744 190.611 45.0966 191.031 45.8182C191.452 46.5341 191.722 47.3239 191.841 48.1875H188.091ZM194.673 60V57.3409L200.886 51.5881C201.414 51.0767 201.857 50.6165 202.215 50.2074C202.579 49.7983 202.854 49.3977 203.042 49.0057C203.229 48.608 203.323 48.179 203.323 47.7188C203.323 47.2074 203.207 46.767 202.974 46.3977C202.741 46.0227 202.423 45.7358 202.019 45.5369C201.616 45.3324 201.158 45.2301 200.647 45.2301C200.113 45.2301 199.647 45.3381 199.249 45.554C198.852 45.7699 198.545 46.0795 198.329 46.483C198.113 46.8864 198.005 47.3665 198.005 47.9233H194.502C194.502 46.7812 194.761 45.7898 195.278 44.9489C195.795 44.108 196.519 43.4574 197.451 42.9972C198.383 42.5369 199.457 42.3068 200.673 42.3068C201.923 42.3068 203.011 42.5284 203.937 42.9716C204.869 43.4091 205.593 44.017 206.11 44.7955C206.627 45.5739 206.886 46.4659 206.886 47.4716C206.886 48.1307 206.755 48.7812 206.494 49.4233C206.238 50.0653 205.781 50.7784 205.121 51.5625C204.462 52.3409 203.533 53.2756 202.335 54.3665L199.786 56.8636V56.983H207.116V60H194.673Z" fill="#2491FF" fill-opacity="0.6"/>
<circle cx="331.5" cy="51.5" r="49.5" stroke="#E9E6E6" stroke-width="4"/>
<path d="M327.091 48.1875C326.972 47.7727 326.804 47.4062 326.588 47.0881C326.372 46.7642 326.108 46.4915 325.795 46.2699C325.489 46.0426 325.136 45.8693 324.739 45.75C324.347 45.6307 323.912 45.571 323.435 45.571C322.543 45.571 321.759 45.7926 321.082 46.2358C320.412 46.679 319.889 47.3239 319.514 48.1705C319.139 49.0114 318.952 50.0398 318.952 51.2557C318.952 52.4716 319.136 53.5057 319.506 54.358C319.875 55.2102 320.398 55.8608 321.074 56.3097C321.75 56.7528 322.548 56.9744 323.469 56.9744C324.304 56.9744 325.017 56.8267 325.608 56.5312C326.205 56.2301 326.659 55.8068 326.972 55.2614C327.29 54.7159 327.449 54.071 327.449 53.3267L328.199 53.4375H323.699V50.6591H331.003V52.858C331.003 54.392 330.679 55.7102 330.031 56.8125C329.384 57.9091 328.491 58.7557 327.355 59.3523C326.219 59.9432 324.918 60.2386 323.452 60.2386C321.815 60.2386 320.378 59.8778 319.139 59.1562C317.901 58.429 316.935 57.3977 316.241 56.0625C315.554 54.7216 315.21 53.1307 315.21 51.2898C315.21 49.875 315.415 48.6136 315.824 47.5057C316.239 46.392 316.818 45.4489 317.562 44.6761C318.307 43.9034 319.173 43.3153 320.162 42.9119C321.151 42.5085 322.222 42.3068 323.375 42.3068C324.364 42.3068 325.284 42.4517 326.136 42.7415C326.989 43.0256 327.744 43.429 328.403 43.9517C329.068 44.4744 329.611 45.0966 330.031 45.8182C330.452 46.5341 330.722 47.3239 330.841 48.1875H327.091ZM340.124 60.2386C338.852 60.2386 337.718 60.0199 336.724 59.5824C335.735 59.1392 334.954 58.5312 334.38 57.7585C333.812 56.9801 333.519 56.0824 333.502 55.0653H337.218C337.241 55.4915 337.38 55.8665 337.636 56.1903C337.897 56.5085 338.244 56.7557 338.675 56.9318C339.107 57.108 339.593 57.196 340.133 57.196C340.695 57.196 341.192 57.0966 341.624 56.8977C342.056 56.6989 342.394 56.4233 342.638 56.071C342.883 55.7187 343.005 55.3125 343.005 54.8523C343.005 54.3864 342.874 53.9744 342.613 53.6165C342.357 53.2528 341.988 52.9687 341.505 52.7642C341.028 52.5597 340.46 52.4574 339.8 52.4574H338.173V49.7472H339.8C340.357 49.7472 340.849 49.6506 341.275 49.4574C341.707 49.2642 342.042 48.9972 342.281 48.6562C342.519 48.3097 342.638 47.9062 342.638 47.446C342.638 47.0085 342.533 46.625 342.323 46.2955C342.119 45.9602 341.829 45.6989 341.454 45.5114C341.085 45.3239 340.653 45.2301 340.158 45.2301C339.658 45.2301 339.201 45.321 338.786 45.5028C338.371 45.679 338.039 45.9318 337.789 46.2614C337.539 46.5909 337.406 46.9773 337.388 47.4205H333.852C333.869 46.4148 334.156 45.5284 334.712 44.7614C335.269 43.9943 336.019 43.3949 336.962 42.9631C337.911 42.5256 338.982 42.3068 340.175 42.3068C341.38 42.3068 342.434 42.5256 343.337 42.9631C344.241 43.4006 344.942 43.9915 345.442 44.7358C345.948 45.4744 346.198 46.304 346.192 47.2244C346.198 48.2017 345.894 49.017 345.281 49.6705C344.673 50.3239 343.88 50.7386 342.903 50.9148V51.0511C344.187 51.2159 345.164 51.6619 345.835 52.3892C346.511 53.1108 346.846 54.0142 346.84 55.0994C346.846 56.0938 346.559 56.9773 345.979 57.75C345.406 58.5227 344.613 59.1307 343.602 59.5739C342.59 60.017 341.431 60.2386 340.124 60.2386Z" fill="#2491FF" fill-opacity="0.4"/>
<circle cx="826.5" cy="51.5" r="49.5" stroke="#E9E6E6" stroke-width="4"/>
<path d="M824.091 48.1875C823.972 47.7727 823.804 47.4062 823.588 47.0881C823.372 46.7642 823.108 46.4915 822.795 46.2699C822.489 46.0426 822.136 45.8693 821.739 45.75C821.347 45.6307 820.912 45.571 820.435 45.571C819.543 45.571 818.759 45.7926 818.082 46.2358C817.412 46.679 816.889 47.3239 816.514 48.1705C816.139 49.0114 815.952 50.0398 815.952 51.2557C815.952 52.4716 816.136 53.5057 816.506 54.358C816.875 55.2102 817.398 55.8608 818.074 56.3097C818.75 56.7528 819.548 56.9744 820.469 56.9744C821.304 56.9744 822.017 56.8267 822.608 56.5312C823.205 56.2301 823.659 55.8068 823.972 55.2614C824.29 54.7159 824.449 54.071 824.449 53.3267L825.199 53.4375H820.699V50.6591H828.003V52.858C828.003 54.392 827.679 55.7102 827.031 56.8125C826.384 57.9091 825.491 58.7557 824.355 59.3523C823.219 59.9432 821.918 60.2386 820.452 60.2386C818.815 60.2386 817.378 59.8778 816.139 59.1562C814.901 58.429 813.935 57.3977 813.241 56.0625C812.554 54.7216 812.21 53.1307 812.21 51.2898C812.21 49.875 812.415 48.6136 812.824 47.5057C813.239 46.392 813.818 45.4489 814.562 44.6761C815.307 43.9034 816.173 43.3153 817.162 42.9119C818.151 42.5085 819.222 42.3068 820.375 42.3068C821.364 42.3068 822.284 42.4517 823.136 42.7415C823.989 43.0256 824.744 43.429 825.403 43.9517C826.068 44.4744 826.611 45.0966 827.031 45.8182C827.452 46.5341 827.722 47.3239 827.841 48.1875H824.091ZM834.337 52.4318V60H830.707V46.9091H834.167V49.2188H834.32C834.61 48.4574 835.096 47.8551 835.778 47.4119C836.46 46.9631 837.286 46.7386 838.258 46.7386C839.167 46.7386 839.96 46.9375 840.636 47.3352C841.312 47.733 841.837 48.3011 842.212 49.0398C842.587 49.7727 842.775 50.6477 842.775 51.6648V60H839.144V52.3125C839.15 51.5114 838.945 50.8864 838.531 50.4375C838.116 49.983 837.545 49.7557 836.817 49.7557C836.329 49.7557 835.897 49.8608 835.522 50.071C835.153 50.2812 834.863 50.5881 834.653 50.9915C834.448 51.3892 834.343 51.8693 834.337 52.4318Z" fill="#2491FF" fill-opacity="0.2"/>
<path d="M749 53C750.105 53 751 52.1046 751 51C751 49.8954 750.105 49 749 49L749 53ZM408 53L412.06 53L412.06 49L408 49L408 53ZM420.179 53L428.298 53L428.298 49L420.179 49L420.179 53ZM436.417 53L444.536 53L444.536 49L436.417 49L436.417 53ZM452.655 53L460.774 53L460.774 49L452.655 49L452.655 53ZM468.893 53L477.012 53L477.012 49L468.893 49L468.893 53ZM485.131 53L493.25 53L493.25 49L485.131 49L485.131 53ZM501.369 53L509.488 53L509.488 49L501.369 49L501.369 53ZM517.607 53L525.726 53L525.726 49L517.607 49L517.607 53ZM533.845 53L541.964 53L541.964 49L533.845 49L533.845 53ZM550.083 53L558.202 53L558.202 49L550.083 49L550.083 53ZM566.321 53L574.44 53L574.44 49L566.321 49L566.321 53ZM582.56 53L590.679 53L590.679 49L582.56 49L582.56 53ZM598.798 53L606.917 53L606.917 49L598.798 49L598.798 53ZM615.036 53L623.155 53L623.155 49L615.036 49L615.036 53ZM631.274 53L639.393 53L639.393 49L631.274 49L631.274 53ZM647.512 53L655.631 53L655.631 49L647.512 49L647.512 53ZM663.75 53L671.869 53L671.869 49L663.75 49L663.75 53ZM679.988 53L688.107 53L688.107 49L679.988 49L679.988 53ZM696.226 53L704.345 53L704.345 49L696.226 49L696.226 53ZM712.464 53L720.583 53L720.583 49L712.464 49L712.464 53ZM728.702 53L736.821 53L736.821 49L728.702 49L728.702 53ZM744.941 53L749 53L749 49L744.941 49L744.941 53Z" fill="black" fill-opacity="0.4"/>
<path d="M39.517 141V123.545H43.2074V130.747H50.6989V123.545H54.3807V141H50.6989V133.79H43.2074V141H39.517ZM64.9148 123.545V141H61.2244V127.048H61.1222L57.125 129.554V126.281L61.446 123.545H64.9148Z" fill="#2491FF"/>
<rect x="29.5" y="117.5" width="44" height="29" rx="7.5" stroke="#2491FF"/>
<path d="M126.517 140V122.545H130.207V129.747H137.699V122.545H141.381V140H137.699V132.79H130.207V140H126.517ZM144.321 140V137.341L150.534 131.588C151.063 131.077 151.506 130.616 151.864 130.207C152.227 129.798 152.503 129.398 152.69 129.006C152.878 128.608 152.972 128.179 152.972 127.719C152.972 127.207 152.855 126.767 152.622 126.398C152.389 126.023 152.071 125.736 151.668 125.537C151.264 125.332 150.807 125.23 150.295 125.23C149.761 125.23 149.295 125.338 148.898 125.554C148.5 125.77 148.193 126.08 147.977 126.483C147.761 126.886 147.653 127.366 147.653 127.923H144.151C144.151 126.781 144.409 125.79 144.926 124.949C145.443 124.108 146.168 123.457 147.099 122.997C148.031 122.537 149.105 122.307 150.321 122.307C151.571 122.307 152.659 122.528 153.585 122.972C154.517 123.409 155.241 124.017 155.759 124.795C156.276 125.574 156.534 126.466 156.534 127.472C156.534 128.131 156.403 128.781 156.142 129.423C155.886 130.065 155.429 130.778 154.77 131.562C154.111 132.341 153.182 133.276 151.983 134.366L149.435 136.864V136.983H156.764V140H144.321Z" fill="#2491FF" fill-opacity="0.6"/>
<rect x="118.5" y="116.5" width="44" height="29" rx="7.5" stroke="#2491FF" stroke-opacity="0.6"/>
<path d="M299.517 141V123.545H303.207V130.747H310.699V123.545H314.381V141H310.699V133.79H303.207V141H299.517ZM323.773 141.239C322.5 141.239 321.366 141.02 320.372 140.582C319.384 140.139 318.602 139.531 318.028 138.759C317.46 137.98 317.168 137.082 317.151 136.065H320.866C320.889 136.491 321.028 136.866 321.284 137.19C321.545 137.509 321.892 137.756 322.324 137.932C322.756 138.108 323.241 138.196 323.781 138.196C324.344 138.196 324.841 138.097 325.273 137.898C325.705 137.699 326.043 137.423 326.287 137.071C326.531 136.719 326.653 136.312 326.653 135.852C326.653 135.386 326.523 134.974 326.261 134.616C326.006 134.253 325.636 133.969 325.153 133.764C324.676 133.56 324.108 133.457 323.449 133.457H321.821V130.747H323.449C324.006 130.747 324.497 130.651 324.923 130.457C325.355 130.264 325.69 129.997 325.929 129.656C326.168 129.31 326.287 128.906 326.287 128.446C326.287 128.009 326.182 127.625 325.972 127.295C325.767 126.96 325.477 126.699 325.102 126.511C324.733 126.324 324.301 126.23 323.807 126.23C323.307 126.23 322.849 126.321 322.435 126.503C322.02 126.679 321.688 126.932 321.438 127.261C321.188 127.591 321.054 127.977 321.037 128.42H317.5C317.517 127.415 317.804 126.528 318.361 125.761C318.918 124.994 319.668 124.395 320.611 123.963C321.56 123.526 322.631 123.307 323.824 123.307C325.028 123.307 326.082 123.526 326.986 123.963C327.889 124.401 328.591 124.991 329.091 125.736C329.597 126.474 329.847 127.304 329.841 128.224C329.847 129.202 329.543 130.017 328.929 130.67C328.321 131.324 327.528 131.739 326.551 131.915V132.051C327.835 132.216 328.813 132.662 329.483 133.389C330.159 134.111 330.494 135.014 330.489 136.099C330.494 137.094 330.207 137.977 329.628 138.75C329.054 139.523 328.261 140.131 327.25 140.574C326.239 141.017 325.08 141.239 323.773 141.239Z" fill="#2491FF" fill-opacity="0.4"/>
<rect x="291.5" y="117.5" width="44" height="29" rx="7.5" stroke="#2491FF" stroke-opacity="0.4"/>
<path d="M715.517 140V122.545H719.207V129.747H726.699V122.545H730.381V140H726.699V132.79H719.207V140H715.517ZM736.986 132.432V140H733.355V126.909H736.815V129.219H736.969C737.259 128.457 737.744 127.855 738.426 127.412C739.108 126.963 739.935 126.739 740.906 126.739C741.815 126.739 742.608 126.938 743.284 127.335C743.96 127.733 744.486 128.301 744.861 129.04C745.236 129.773 745.423 130.648 745.423 131.665V140H741.793V132.312C741.798 131.511 741.594 130.886 741.179 130.438C740.764 129.983 740.193 129.756 739.466 129.756C738.977 129.756 738.545 129.861 738.17 130.071C737.801 130.281 737.511 130.588 737.301 130.991C737.097 131.389 736.991 131.869 736.986 132.432Z" fill="#2491FF" fill-opacity="0.2"/>
<rect x="707.5" y="116.5" width="44" height="29" rx="7.5" stroke="#2491FF" stroke-opacity="0.2"/>
<path d="M176.517 140V122.545H180.207V129.747H187.699V122.545H191.381V140H187.699V132.79H180.207V140H176.517ZM194.321 140V137.341L200.534 131.588C201.063 131.077 201.506 130.616 201.864 130.207C202.227 129.798 202.503 129.398 202.69 129.006C202.878 128.608 202.972 128.179 202.972 127.719C202.972 127.207 202.855 126.767 202.622 126.398C202.389 126.023 202.071 125.736 201.668 125.537C201.264 125.332 200.807 125.23 200.295 125.23C199.761 125.23 199.295 125.338 198.898 125.554C198.5 125.77 198.193 126.08 197.977 126.483C197.761 126.886 197.653 127.366 197.653 127.923H194.151C194.151 126.781 194.409 125.79 194.926 124.949C195.443 124.108 196.168 123.457 197.099 122.997C198.031 122.537 199.105 122.307 200.321 122.307C201.571 122.307 202.659 122.528 203.585 122.972C204.517 123.409 205.241 124.017 205.759 124.795C206.276 125.574 206.534 126.466 206.534 127.472C206.534 128.131 206.403 128.781 206.142 129.423C205.886 130.065 205.429 130.778 204.77 131.562C204.111 132.341 203.182 133.276 201.983 134.366L199.435 136.864V136.983H206.764V140H194.321Z" fill="#2491FF" fill-opacity="0.6"/>
<rect x="168.5" y="116.5" width="44" height="29" rx="7.5" stroke="#2491FF" stroke-opacity="0.6"/>
<path d="M351.517 141V123.545H355.207V130.747H362.699V123.545H366.381V141H362.699V133.79H355.207V141H351.517ZM375.773 141.239C374.5 141.239 373.366 141.02 372.372 140.582C371.384 140.139 370.602 139.531 370.028 138.759C369.46 137.98 369.168 137.082 369.151 136.065H372.866C372.889 136.491 373.028 136.866 373.284 137.19C373.545 137.509 373.892 137.756 374.324 137.932C374.756 138.108 375.241 138.196 375.781 138.196C376.344 138.196 376.841 138.097 377.273 137.898C377.705 137.699 378.043 137.423 378.287 137.071C378.531 136.719 378.653 136.312 378.653 135.852C378.653 135.386 378.523 134.974 378.261 134.616C378.006 134.253 377.636 133.969 377.153 133.764C376.676 133.56 376.108 133.457 375.449 133.457H373.821V130.747H375.449C376.006 130.747 376.497 130.651 376.923 130.457C377.355 130.264 377.69 129.997 377.929 129.656C378.168 129.31 378.287 128.906 378.287 128.446C378.287 128.009 378.182 127.625 377.972 127.295C377.767 126.96 377.477 126.699 377.102 126.511C376.733 126.324 376.301 126.23 375.807 126.23C375.307 126.23 374.849 126.321 374.435 126.503C374.02 126.679 373.688 126.932 373.438 127.261C373.188 127.591 373.054 127.977 373.037 128.42H369.5C369.517 127.415 369.804 126.528 370.361 125.761C370.918 124.994 371.668 124.395 372.611 123.963C373.56 123.526 374.631 123.307 375.824 123.307C377.028 123.307 378.082 123.526 378.986 123.963C379.889 124.401 380.591 124.991 381.091 125.736C381.597 126.474 381.847 127.304 381.841 128.224C381.847 129.202 381.543 130.017 380.929 130.67C380.321 131.324 379.528 131.739 378.551 131.915V132.051C379.835 132.216 380.813 132.662 381.483 133.389C382.159 134.111 382.494 135.014 382.489 136.099C382.494 137.094 382.207 137.977 381.628 138.75C381.054 139.523 380.261 140.131 379.25 140.574C378.239 141.017 377.08 141.239 375.773 141.239Z" fill="#2491FF" fill-opacity="0.4"/>
<rect x="343.5" y="117.5" width="44" height="29" rx="7.5" stroke="#2491FF" stroke-opacity="0.4"/>
<path d="M765.517 140V122.545H769.207V129.747H776.699V122.545H780.381V140H776.699V132.79H769.207V140H765.517ZM786.986 132.432V140H783.355V126.909H786.815V129.219H786.969C787.259 128.457 787.744 127.855 788.426 127.412C789.108 126.963 789.935 126.739 790.906 126.739C791.815 126.739 792.608 126.938 793.284 127.335C793.96 127.733 794.486 128.301 794.861 129.04C795.236 129.773 795.423 130.648 795.423 131.665V140H791.793V132.312C791.798 131.511 791.594 130.886 791.179 130.438C790.764 129.983 790.193 129.756 789.466 129.756C788.977 129.756 788.545 129.861 788.17 130.071C787.801 130.281 787.511 130.588 787.301 130.991C787.097 131.389 786.991 131.869 786.986 132.432Z" fill="#2491FF" fill-opacity="0.2"/>
<rect x="757.5" y="116.5" width="44" height="29" rx="7.5" stroke="#2491FF" stroke-opacity="0.2"/>
<path d="M227.517 140V122.545H231.207V129.747H238.699V122.545H242.381V140H238.699V132.79H231.207V140H227.517ZM245.321 140V137.341L251.534 131.588C252.063 131.077 252.506 130.616 252.864 130.207C253.227 129.798 253.503 129.398 253.69 129.006C253.878 128.608 253.972 128.179 253.972 127.719C253.972 127.207 253.855 126.767 253.622 126.398C253.389 126.023 253.071 125.736 252.668 125.537C252.264 125.332 251.807 125.23 251.295 125.23C250.761 125.23 250.295 125.338 249.898 125.554C249.5 125.77 249.193 126.08 248.977 126.483C248.761 126.886 248.653 127.366 248.653 127.923H245.151C245.151 126.781 245.409 125.79 245.926 124.949C246.443 124.108 247.168 123.457 248.099 122.997C249.031 122.537 250.105 122.307 251.321 122.307C252.571 122.307 253.659 122.528 254.585 122.972C255.517 123.409 256.241 124.017 256.759 124.795C257.276 125.574 257.534 126.466 257.534 127.472C257.534 128.131 257.403 128.781 257.142 129.423C256.886 130.065 256.429 130.778 255.77 131.562C255.111 132.341 254.182 133.276 252.983 134.366L250.435 136.864V136.983H257.764V140H245.321Z" fill="#2491FF" fill-opacity="0.6"/>
<rect x="219.5" y="116.5" width="44" height="29" rx="7.5" stroke="#2491FF" stroke-opacity="0.6"/>
<path d="M403.517 141V123.545H407.207V130.747H414.699V123.545H418.381V141H414.699V133.79H407.207V141H403.517ZM427.773 141.239C426.5 141.239 425.366 141.02 424.372 140.582C423.384 140.139 422.602 139.531 422.028 138.759C421.46 137.98 421.168 137.082 421.151 136.065H424.866C424.889 136.491 425.028 136.866 425.284 137.19C425.545 137.509 425.892 137.756 426.324 137.932C426.756 138.108 427.241 138.196 427.781 138.196C428.344 138.196 428.841 138.097 429.273 137.898C429.705 137.699 430.043 137.423 430.287 137.071C430.531 136.719 430.653 136.312 430.653 135.852C430.653 135.386 430.523 134.974 430.261 134.616C430.006 134.253 429.636 133.969 429.153 133.764C428.676 133.56 428.108 133.457 427.449 133.457H425.821V130.747H427.449C428.006 130.747 428.497 130.651 428.923 130.457C429.355 130.264 429.69 129.997 429.929 129.656C430.168 129.31 430.287 128.906 430.287 128.446C430.287 128.009 430.182 127.625 429.972 127.295C429.767 126.96 429.477 126.699 429.102 126.511C428.733 126.324 428.301 126.23 427.807 126.23C427.307 126.23 426.849 126.321 426.435 126.503C426.02 126.679 425.688 126.932 425.438 127.261C425.188 127.591 425.054 127.977 425.037 128.42H421.5C421.517 127.415 421.804 126.528 422.361 125.761C422.918 124.994 423.668 124.395 424.611 123.963C425.56 123.526 426.631 123.307 427.824 123.307C429.028 123.307 430.082 123.526 430.986 123.963C431.889 124.401 432.591 124.991 433.091 125.736C433.597 126.474 433.847 127.304 433.841 128.224C433.847 129.202 433.543 130.017 432.929 130.67C432.321 131.324 431.528 131.739 430.551 131.915V132.051C431.835 132.216 432.813 132.662 433.483 133.389C434.159 134.111 434.494 135.014 434.489 136.099C434.494 137.094 434.207 137.977 433.628 138.75C433.054 139.523 432.261 140.131 431.25 140.574C430.239 141.017 429.08 141.239 427.773 141.239Z" fill="#2491FF" fill-opacity="0.4"/>
<rect x="395.5" y="117.5" width="44" height="29" rx="7.5" stroke="#2491FF" stroke-opacity="0.4"/>
<path d="M455.517 141V123.545H459.207V130.747H466.699V123.545H470.381V141H466.699V133.79H459.207V141H455.517ZM479.773 141.239C478.5 141.239 477.366 141.02 476.372 140.582C475.384 140.139 474.602 139.531 474.028 138.759C473.46 137.98 473.168 137.082 473.151 136.065H476.866C476.889 136.491 477.028 136.866 477.284 137.19C477.545 137.509 477.892 137.756 478.324 137.932C478.756 138.108 479.241 138.196 479.781 138.196C480.344 138.196 480.841 138.097 481.273 137.898C481.705 137.699 482.043 137.423 482.287 137.071C482.531 136.719 482.653 136.312 482.653 135.852C482.653 135.386 482.523 134.974 482.261 134.616C482.006 134.253 481.636 133.969 481.153 133.764C480.676 133.56 480.108 133.457 479.449 133.457H477.821V130.747H479.449C480.006 130.747 480.497 130.651 480.923 130.457C481.355 130.264 481.69 129.997 481.929 129.656C482.168 129.31 482.287 128.906 482.287 128.446C482.287 128.009 482.182 127.625 481.972 127.295C481.767 126.96 481.477 126.699 481.102 126.511C480.733 126.324 480.301 126.23 479.807 126.23C479.307 126.23 478.849 126.321 478.435 126.503C478.02 126.679 477.688 126.932 477.438 127.261C477.188 127.591 477.054 127.977 477.037 128.42H473.5C473.517 127.415 473.804 126.528 474.361 125.761C474.918 124.994 475.668 124.395 476.611 123.963C477.56 123.526 478.631 123.307 479.824 123.307C481.028 123.307 482.082 123.526 482.986 123.963C483.889 124.401 484.591 124.991 485.091 125.736C485.597 126.474 485.847 127.304 485.841 128.224C485.847 129.202 485.543 130.017 484.929 130.67C484.321 131.324 483.528 131.739 482.551 131.915V132.051C483.835 132.216 484.813 132.662 485.483 133.389C486.159 134.111 486.494 135.014 486.489 136.099C486.494 137.094 486.207 137.977 485.628 138.75C485.054 139.523 484.261 140.131 483.25 140.574C482.239 141.017 481.08 141.239 479.773 141.239Z" fill="#2491FF" fill-opacity="0.4"/>
<rect x="447.5" y="117.5" width="44" height="29" rx="7.5" stroke="#2491FF" stroke-opacity="0.4"/>
<path d="M816.517 140V122.545H820.207V129.747H827.699V122.545H831.381V140H827.699V132.79H820.207V140H816.517ZM837.986 132.432V140H834.355V126.909H837.815V129.219H837.969C838.259 128.457 838.744 127.855 839.426 127.412C840.108 126.963 840.935 126.739 841.906 126.739C842.815 126.739 843.608 126.938 844.284 127.335C844.96 127.733 845.486 128.301 845.861 129.04C846.236 129.773 846.423 130.648 846.423 131.665V140H842.793V132.312C842.798 131.511 842.594 130.886 842.179 130.438C841.764 129.983 841.193 129.756 840.466 129.756C839.977 129.756 839.545 129.861 839.17 130.071C838.801 130.281 838.511 130.588 838.301 130.991C838.097 131.389 837.991 131.869 837.986 132.432Z" fill="#2491FF" fill-opacity="0.2"/>
<rect x="808.5" y="116.5" width="44" height="29" rx="7.5" stroke="#2491FF" stroke-opacity="0.2"/>
<path d="M867.517 140V122.545H871.207V129.747H878.699V122.545H882.381V140H878.699V132.79H871.207V140H867.517ZM888.986 132.432V140H885.355V126.909H888.815V129.219H888.969C889.259 128.457 889.744 127.855 890.426 127.412C891.108 126.963 891.935 126.739 892.906 126.739C893.815 126.739 894.608 126.938 895.284 127.335C895.96 127.733 896.486 128.301 896.861 129.04C897.236 129.773 897.423 130.648 897.423 131.665V140H893.793V132.312C893.798 131.511 893.594 130.886 893.179 130.438C892.764 129.983 892.193 129.756 891.466 129.756C890.977 129.756 890.545 129.861 890.17 130.071C889.801 130.281 889.511 130.588 889.301 130.991C889.097 131.389 888.991 131.869 888.986 132.432Z" fill="#2491FF" fill-opacity="0.2"/>
<rect x="859.5" y="116.5" width="44" height="29" rx="7.5" stroke="#2491FF" stroke-opacity="0.2"/>
<path d="M922.517 140V122.545H926.207V129.747H933.699V122.545H937.381V140H933.699V132.79H926.207V140H922.517ZM943.986 132.432V140H940.355V126.909H943.815V129.219H943.969C944.259 128.457 944.744 127.855 945.426 127.412C946.108 126.963 946.935 126.739 947.906 126.739C948.815 126.739 949.608 126.938 950.284 127.335C950.96 127.733 951.486 128.301 951.861 129.04C952.236 129.773 952.423 130.648 952.423 131.665V140H948.793V132.312C948.798 131.511 948.594 130.886 948.179 130.438C947.764 129.983 947.193 129.756 946.466 129.756C945.977 129.756 945.545 129.861 945.17 130.071C944.801 130.281 944.511 130.588 944.301 130.991C944.097 131.389 943.991 131.869 943.986 132.432Z" fill="#2491FF" fill-opacity="0.2"/>
<rect x="914.5" y="116.5" width="44" height="29" rx="7.5" stroke="#2491FF" stroke-opacity="0.2"/>
</svg>
