<svg width="51" height="50" viewBox="0 0 51 50" fill="none" xmlns="http://www.w3.org/2000/svg">
<path d="M25.5 9.04762C25.1 9.04762 24.7048 9.07857 24.3095 9.10714V0H26.6905V9.13571C26.2929 9.10714 25.9024 9.04762 25.5 9.04762ZM24.3095 40.8929V50H26.6905V40.8643C26.2929 40.8929 25.9024 40.9524 25.5 40.9524C25.1 40.9524 24.7048 40.9214 24.3095 40.8929ZM41.4524 25C41.4524 25.4 41.4214 25.7952 41.3929 26.1905H50.5V23.8095H41.3786C41.4071 24.2048 41.45 24.6 41.45 25H41.4524ZM9.63571 23.8095H0.5V26.1905H9.65238C9.62381 25.7929 9.54762 25.4048 9.54762 25C9.54762 24.5952 9.60714 24.2071 9.63571 23.8095ZM37.5786 14.6048L44.019 8.16429L42.3357 6.48095L35.9024 12.9143C36.5025 13.4352 37.0628 14.0002 37.5786 14.6048ZM6.98095 41.8333L8.66429 43.5167L15.1619 37.019C14.5556 36.5063 13.9881 35.9492 13.4643 35.3524L6.98095 41.8333ZM35.8571 37.0381L42.3357 43.5167L44.019 41.8333L37.5429 35.3571C37.0239 35.959 36.4604 36.5209 35.8571 37.0381ZM15.1 12.9167L8.66667 6.48095L6.98333 8.16429L13.4214 14.6024C13.9388 13.9992 14.5007 13.4357 15.1024 12.9167H15.1ZM38.119 25C38.1187 27.8155 37.1769 30.5499 35.4433 32.7684C33.7098 34.9869 31.2841 36.5619 28.5523 37.2429C25.8204 37.9239 22.9393 37.6717 20.3672 36.5266C17.7952 35.3814 15.68 33.409 14.3582 30.9231C13.0364 28.4372 12.5838 25.5807 13.0725 22.808C13.5613 20.0353 14.9632 17.5057 17.0553 15.6216C19.1474 13.7375 21.8095 12.6071 24.6181 12.4103C27.4267 12.2136 30.2204 12.9617 32.5548 14.5357C34.2708 15.6883 35.6763 17.2461 36.6469 19.0713C37.6174 20.8965 38.123 22.9328 38.119 25ZM35.7738 25C35.7738 22.968 35.1713 20.9817 34.0424 19.2922C32.9135 17.6027 31.3089 16.2858 29.4316 15.5082C27.5543 14.7306 25.4886 14.5272 23.4957 14.9236C21.5028 15.32 19.6721 16.2985 18.2353 17.7353C16.7985 19.1721 15.82 21.0028 15.4236 22.9957C15.0272 24.9886 15.2306 27.0543 16.0082 28.9316C16.7858 30.8089 18.1027 32.4135 19.7922 33.5424C21.4817 34.6713 23.468 35.2738 25.5 35.2738C28.2238 35.2707 30.8352 34.1872 32.7612 32.2612C34.6872 30.3352 35.7707 27.7238 35.7738 25Z" fill="#336990"/>
</svg>
